<?xml version='1.0' encoding='utf-8'?>
<svg xmlns="http://www.w3.org/2000/svg" viewBox="0.0 0.0 100.69 201.39" width="512" height="512"><defs><style>.cls-1{fill:#eb2127;}.cls-2{fill:#1d76bb;}</style><clipPath id="clip-left"><rect x="0" y="0" width="201.39" height="201.39" /></clipPath></defs><g clip-path="url(#clip-left)"><path class="cls-1" d="M93.32,148.94c-.51,0-1,0-1.54,0a45.43,45.43,0,0,1-8.2-90.12L81,54.62a50.09,50.09,0,0,0,10.79,99c1.23,0,2.44,0,3.64-.13Z" /><path class="cls-2" d="M91.78,53.45a51.07,51.07,0,0,0-5.42.29l2.41,4.47c1-.07,2-.1,3-.1a45.43,45.43,0,0,1,6.68,90.37l2.08,4.38a50.09,50.09,0,0,0-8.76-99.41Z" /><polygon class="cls-2" points="79.13 97.11 76.67 101.69 100.54 152.86 104.62 151.96 79.13 97.11" /><polygon class="cls-2" points="95.42 95.43 99.5 102.25 99.5 120.94 95.42 120.94 95.42 95.43" /><polygon class="cls-1" points="81 54.62 109.57 103.16 119.53 86.81 124.23 86.92 124.23 120.94 120.2 120.94 119.97 93.41 110.02 111.77 77.14 55.63 81 54.62" /><polygon class="cls-1" points="73.31 83.23 75.89 88.6 66.71 107.63 73.98 107.63 76.67 112.88 64.47 112.88 61.34 119.38 56.75 119.38 73.31 83.23" /><path class="cls-2" d="M182.16,139.45h-4.65v-16.7c0-.85-.48-1.27-1.43-1.27a1.2,1.2,0,0,0-1.35,1.37v16.6h-4.66V122.57a.92.92,0,0,0-.44-.78,1.57,1.57,0,0,0-.92-.31c-.92,0-1.39.42-1.39,1.27v16.7h-4.65v-16.6a3.42,3.42,0,0,1,2.11-3.08,7.85,7.85,0,0,1,3.82-.93,6.1,6.1,0,0,1,3.81,1.13,6.69,6.69,0,0,1,3.92-1.13,7.79,7.79,0,0,1,3.79.93,3.42,3.42,0,0,1,2,3.08Z" /><path class="cls-2" d="M196.23,136.09a3.35,3.35,0,0,1-2.15,3.09,9.3,9.3,0,0,1-7.77,0,3.34,3.34,0,0,1-2.17-3.09V119.53h4.65V136.2c0,.84.47,1.26,1.39,1.26s1.39-.42,1.39-1.26V119.53h4.66Z" /><path class="cls-2" d="M210.3,135.17q0,2.78-1.71,3.87a8.19,8.19,0,0,1-4.32.89c-4,0-6.07-1.28-6.07-3.84V122.92a3.38,3.38,0,0,1,2.18-3.08,8.7,8.7,0,0,1,3.89-.83,8.43,8.43,0,0,1,3.82.83,3.37,3.37,0,0,1,2.1,3.08v3.49q0,2.84-3.54,3.11a6.72,6.72,0,0,1,2.44.59,2.2,2.2,0,0,1,1.1,2.12q0,.48.06,1.47C210.28,134.36,210.3,134.85,210.3,135.17ZM205.77,124c0-1.67-.5-2.5-1.52-2.5s-1.39.4-1.39,1.2v5.78H203c1.69,0,2.54-.59,2.54-1.78a11.53,11.53,0,0,1,.12-1.32A13.13,13.13,0,0,0,205.77,124Zm-.23,12.22v-3.8a1.48,1.48,0,0,0-.71-1.44,3.94,3.94,0,0,0-1.63-.24h-.34v5.48c0,.84.45,1.26,1.36,1.26S205.54,137,205.54,136.2Z" /><path class="cls-2" d="M224.36,139.45h-4.65v-9.59h-2.78v9.59h-4.66v-16.6a3.39,3.39,0,0,1,2.15-3.08,9.68,9.68,0,0,1,7.8,0,3.37,3.37,0,0,1,2.14,3.08Zm-4.65-12.19v-4.51c0-.85-.47-1.27-1.39-1.27s-1.39.42-1.39,1.27v4.51Z" /><path class="cls-2" d="M238.09,124c0,.34,0,.84-.06,1.49s-.07,1.12-.07,1.42H233.3c0-.28,0-.73.09-1.37s.08-1,.08-1.37c0-1.78-.5-2.67-1.52-2.67s-1.32.49-1.32,1.47c0,.14,0,.33,0,.58s0,.45,0,.58a4.7,4.7,0,0,0,1.88,3.29l3.51,2.81a4.61,4.61,0,0,1,1.88,3.25v2.63q0,3.84-6,3.84a8.06,8.06,0,0,1-4.41-1c-1.14-.77-1.7-2.11-1.7-4q0-.56.06-1.65c0-.73.07-1.26.07-1.61h4.66v4.51c0,.83.44,1.24,1.32,1.24s1.52-.57,1.52-1.71a8,8,0,0,0-.06-.81,5.9,5.9,0,0,1-.07-.77c0-.75-.64-1.66-1.91-2.71s-2.37-1.91-3.55-2.84a5.07,5.07,0,0,1-1.91-3.5v-2.2q0-3.8,6-3.8a8.18,8.18,0,0,1,4.42.92A4.34,4.34,0,0,1,238.09,124Z" /><path class="cls-2" d="M251.83,139.48h-4.66V129.9h-2.65v9.58h-4.65V119.53h4.65v7.6h2.65v-7.6h4.66Z" /><path class="cls-2" d="M264.45,139.48H254.14V119.53h10.31v2.7h-5.66v5h5.53v2.64h-5.53v6.85h5.66Z" /><path class="cls-2" d="M277.58,139.45h-4.65v-7a1.47,1.47,0,0,0-.72-1.44,3.85,3.85,0,0,0-1.62-.24h-.34v8.73h-4.66V122.92a3.38,3.38,0,0,1,2.15-3.08,8.78,8.78,0,0,1,3.88-.83,8.44,8.44,0,0,1,3.85.83,3.32,3.32,0,0,1,2.11,3.08v3.49q0,2.84-3.55,3.11,3.56.31,3.55,2.88Zm-4.42-13V124c0-1.67-.51-2.5-1.52-2.5s-1.39.4-1.39,1.2v5.78h0C272.2,128.46,273.16,127.78,273.16,126.41Z" /><path class="cls-2" d="M298.65,136.09a3.35,3.35,0,0,1-2.15,3.09,8.52,8.52,0,0,1-3.88.85,8.4,8.4,0,0,1-3.88-.85,3.33,3.33,0,0,1-2.18-3.09V122.92a3.36,3.36,0,0,1,2.18-3.08,8.66,8.66,0,0,1,3.88-.83,8.78,8.78,0,0,1,3.88.83,3.38,3.38,0,0,1,2.15,3.08Zm-4.66.11V122.71c0-.82-.46-1.23-1.39-1.23s-1.39.41-1.39,1.23V136.2c0,.84.47,1.26,1.39,1.26S294,137,294,136.2Z" /><path class="cls-2" d="M312.71,139.45h-4.65v-16.7c0-.85-.46-1.27-1.39-1.27s-1.39.42-1.39,1.27v16.7h-4.66v-16.6a3.39,3.39,0,0,1,2.15-3.08,9.68,9.68,0,0,1,7.8,0,3.37,3.37,0,0,1,2.14,3.08Z" /><path class="cls-2" d="M325.14,139.48H314.83V119.53h10.31v2.7h-5.66v5H325v2.64h-5.53v6.85h5.66Z" /><path class="cls-2" d="M345.44,139.45h-4.66v-9.59H338v9.59h-4.65v-16.6a3.37,3.37,0,0,1,2.14-3.08,9.68,9.68,0,0,1,7.8,0,3.39,3.39,0,0,1,2.15,3.08Zm-4.66-12.19v-4.51c0-.85-.46-1.27-1.39-1.27s-1.39.42-1.39,1.27v4.51Z" /><path class="cls-2" d="M359.5,136.09a3.34,3.34,0,0,1-2.14,3.09,8.56,8.56,0,0,1-3.89.85,8.43,8.43,0,0,1-3.88-.85,3.35,3.35,0,0,1-2.18-3.09V119.53h4.66V136.2c0,.84.46,1.26,1.39,1.26s1.39-.42,1.39-1.26V119.53h4.65Z" /><path class="cls-2" d="M373.07,122.1h-4v17.38h-4.66V122.1h-4.05v-2.57h12.73Z" /><path class="cls-2" d="M386.37,136.09a3.35,3.35,0,0,1-2.15,3.09,8.55,8.55,0,0,1-3.88.85,8.44,8.44,0,0,1-3.89-.85,3.35,3.35,0,0,1-2.18-3.09V122.92a3.38,3.38,0,0,1,2.18-3.08,8.7,8.7,0,0,1,3.89-.83,8.81,8.81,0,0,1,3.88.83,3.38,3.38,0,0,1,2.15,3.08Zm-4.66.11V122.71c0-.82-.46-1.23-1.39-1.23s-1.39.41-1.39,1.23V136.2c0,.84.46,1.26,1.39,1.26S381.71,137,381.71,136.2Z" /><path class="cls-2" d="M414.87,139.45h-4.66v-16.7c0-.85-.47-1.27-1.42-1.27a1.2,1.2,0,0,0-1.36,1.37v16.6h-4.65V122.57a.92.92,0,0,0-.44-.78,1.57,1.57,0,0,0-.92-.31c-.93,0-1.39.42-1.39,1.27v16.7h-4.66v-16.6a3.43,3.43,0,0,1,2.12-3.08,7.82,7.82,0,0,1,3.81-.93,6.11,6.11,0,0,1,3.82,1.13,6.67,6.67,0,0,1,3.92-1.13,7.75,7.75,0,0,1,3.78.93,3.42,3.42,0,0,1,2.05,3.08Z" /><path class="cls-2" d="M429,139.45h-4.66v-9.59h-2.78v9.59h-4.65v-16.6a3.37,3.37,0,0,1,2.14-3.08,8.92,8.92,0,0,1,3.92-.82,8.78,8.78,0,0,1,3.88.82,3.39,3.39,0,0,1,2.15,3.08Zm-4.66-12.19v-4.51c0-.85-.46-1.27-1.39-1.27s-1.39.42-1.39,1.27v4.51Z" /><path class="cls-2" d="M435.73,139.48h-4.65V119.53h4.65Z" /><path class="cls-2" d="M450,139.45h-4.65v-16.7c0-.85-.47-1.27-1.39-1.27s-1.39.42-1.39,1.27v16.7h-4.66v-16.6a3.39,3.39,0,0,1,2.15-3.08,9.68,9.68,0,0,1,7.8,0,3.37,3.37,0,0,1,2.14,3.08Z" /><path class="cls-2" d="M463.6,122.1h-4v17.38h-4.66V122.1h-4.05v-2.57H463.6Z" /><path class="cls-2" d="M475.25,139.48H464.94V119.53h10.31v2.7h-5.66v5h5.53v2.64h-5.53v6.85h5.66Z" /><path class="cls-2" d="M488.52,139.45h-4.66v-16.7c0-.85-.46-1.27-1.39-1.27s-1.39.42-1.39,1.27v16.7h-4.65v-16.6a3.37,3.37,0,0,1,2.14-3.08,8.92,8.92,0,0,1,3.92-.82,8.78,8.78,0,0,1,3.88.82,3.39,3.39,0,0,1,2.15,3.08Z" /><path class="cls-2" d="M502.62,139.45H498v-9.59h-2.78v9.59h-4.65v-16.6a3.37,3.37,0,0,1,2.14-3.08,8.92,8.92,0,0,1,3.92-.82,8.78,8.78,0,0,1,3.88.82,3.39,3.39,0,0,1,2.15,3.08ZM498,127.26v-4.51c0-.85-.46-1.27-1.39-1.27s-1.39.42-1.39,1.27v4.51Z" /><path class="cls-2" d="M516.72,139.45h-4.66v-16.7c0-.85-.46-1.27-1.39-1.27s-1.39.42-1.39,1.27v16.7h-4.65v-16.6a3.37,3.37,0,0,1,2.14-3.08,8.89,8.89,0,0,1,3.92-.82,8.78,8.78,0,0,1,3.88.82,3.39,3.39,0,0,1,2.15,3.08Z" /><path class="cls-2" d="M530.79,124c0,.34,0,.84-.06,1.49s-.05,1.12-.05,1.42H526v-4.21c0-.83-.46-1.23-1.37-1.23s-1.38.4-1.38,1.23V136.2q0,1.26,1.38,1.26c.91,0,1.37-.42,1.37-1.26v-4.49h4.65v4.38a3.34,3.34,0,0,1-2.14,3.09,8.55,8.55,0,0,1-3.88.85,8.44,8.44,0,0,1-3.89-.85,3.34,3.34,0,0,1-2.14-3.09V122.92c0-2.54,2-3.8,6-3.8a8.2,8.2,0,0,1,4.42.92C530.22,120.79,530.79,122.11,530.79,124Z" /><path class="cls-2" d="M542.84,139.48H532.53V119.53h10.31v2.7h-5.66v5h5.53v2.64h-5.53v6.85h5.66Z" /><path class="cls-2" d="M563.11,139.48h-4.66V129.9H555.8v9.58h-4.65V119.53h4.65v7.6h2.65v-7.6h4.66Z" /><path class="cls-2" d="M577.37,136.09a3.34,3.34,0,0,1-2.14,3.09,8.56,8.56,0,0,1-3.89.85,8.43,8.43,0,0,1-3.88-.85,3.35,3.35,0,0,1-2.18-3.09V122.92a3.38,3.38,0,0,1,2.18-3.08,8.69,8.69,0,0,1,3.88-.83,8.82,8.82,0,0,1,3.89.83,3.36,3.36,0,0,1,2.14,3.08Zm-4.65.11V122.71c0-.82-.47-1.23-1.39-1.23s-1.39.41-1.39,1.23V136.2c0,.84.46,1.26,1.39,1.26S572.72,137,572.72,136.2Z" /><path class="cls-2" d="M589.77,139.48H579.45V119.53h4.66v17.22h5.66Z" /><path class="cls-2" d="M603.06,135.82c0,1.62-.94,2.71-2.81,3.25a17.53,17.53,0,0,1-4.76.48l-2.27,0c-1,0-1.78,0-2.25,0V119.53c.49,0,1.25,0,2.26,0l2.3,0a19,19,0,0,1,4.72.44q2.81.85,2.81,3.29Zm-4.65,0V123.12c0-.86-.71-1.3-2.14-1.3h-.64v15.27h.64C597.7,137.09,598.41,136.65,598.41,135.78Z" /><path class="cls-2" d="M609.69,139.48H605V119.53h4.65Z" /><path class="cls-2" d="M624,139.45h-4.66v-16.7c0-.85-.46-1.27-1.39-1.27s-1.39.42-1.39,1.27v16.7H611.9v-16.6a3.39,3.39,0,0,1,2.15-3.08,9.68,9.68,0,0,1,7.8,0,3.39,3.39,0,0,1,2.15,3.08Z" /><path class="cls-2" d="M638.06,139.48h-2.44l-.4-1.23A5.22,5.22,0,0,1,631,140.1a5.65,5.65,0,0,1-3.39-1,3.57,3.57,0,0,1-1.64-3V122.92a3.38,3.38,0,0,1,2.18-3.08A8.66,8.66,0,0,1,632,119a8.82,8.82,0,0,1,3.89.83,3.36,3.36,0,0,1,2.14,3.08v4h-4.65V122.7c0-.81-.47-1.22-1.39-1.22s-1.39.41-1.39,1.23V136.2c0,.84.46,1.26,1.39,1.26s1.39-.42,1.39-1.26v-4.35h-2v-2.46h6.66Z" /><path class="cls-2" d="M659,124c0,.34,0,.84-.05,1.49s0,1.12,0,1.42h-4.65v-4.21c0-.83-.46-1.23-1.38-1.23s-1.37.4-1.37,1.23V136.2c0,.84.46,1.26,1.37,1.26s1.38-.42,1.38-1.26v-4.49h4.65v4.38a3.34,3.34,0,0,1-2.14,3.09,8.59,8.59,0,0,1-3.89.85,8.4,8.4,0,0,1-3.88-.85,3.35,3.35,0,0,1-2.15-3.09V122.92c0-2.54,2-3.8,6-3.8a8.18,8.18,0,0,1,4.42.92C658.39,120.79,659,122.11,659,124Z" /><path class="cls-2" d="M672.66,136.09a3.34,3.34,0,0,1-2.14,3.09,8.59,8.59,0,0,1-3.89.85,8.4,8.4,0,0,1-3.88-.85,3.33,3.33,0,0,1-2.18-3.09V122.92a3.36,3.36,0,0,1,2.18-3.08,8.66,8.66,0,0,1,3.88-.83,8.85,8.85,0,0,1,3.89.83,3.36,3.36,0,0,1,2.14,3.08Zm-4.66.11V122.71c0-.82-.46-1.23-1.39-1.23s-1.38.41-1.38,1.23V136.2q0,1.26,1.38,1.26C667.54,137.46,668,137,668,136.2Z" /><path class="cls-2" d="M694.13,139.45h-4.65v-16.7c0-.85-.48-1.27-1.43-1.27a1.21,1.21,0,0,0-1.36,1.37v16.6H682V122.57a.92.92,0,0,0-.44-.78,1.57,1.57,0,0,0-.92-.31c-.92,0-1.39.42-1.39,1.27v16.7h-4.65v-16.6a3.42,3.42,0,0,1,2.11-3.08,7.85,7.85,0,0,1,3.82-.93,6.1,6.1,0,0,1,3.81,1.13,6.58,6.58,0,0,1,3.92-1.13,7.79,7.79,0,0,1,3.79.93,3.42,3.42,0,0,1,2,3.08Z" /><path class="cls-2" d="M708.1,126.41a3.36,3.36,0,0,1-.58,1.81q-1.6,2.72-5.78,2.71h-1v8.52h-4.65V122.92a3.37,3.37,0,0,1,2.17-3.08,8.7,8.7,0,0,1,3.89-.83,8.43,8.43,0,0,1,3.82.83,3.38,3.38,0,0,1,2.11,3.08ZM703.68,124c0-1.67-.51-2.5-1.53-2.5s-1.39.4-1.39,1.2v5.78h.14c1.69,0,2.54-.59,2.54-1.78a11.53,11.53,0,0,1,.12-1.32A11.27,11.27,0,0,0,703.68,124Z" /><path class="cls-2" d="M721.53,139.45h-4.66v-9.59h-2.78v9.59h-4.65v-16.6a3.37,3.37,0,0,1,2.14-3.08,9.68,9.68,0,0,1,7.8,0,3.39,3.39,0,0,1,2.15,3.08Zm-4.66-12.19v-4.51c0-.85-.46-1.27-1.39-1.27s-1.39.42-1.39,1.27v4.51Z" /><path class="cls-2" d="M735.63,139.45H731v-16.7c0-.85-.46-1.27-1.39-1.27s-1.39.42-1.39,1.27v16.7h-4.65v-16.6a3.37,3.37,0,0,1,2.14-3.08,9.68,9.68,0,0,1,7.8,0,3.39,3.39,0,0,1,2.15,3.08Z" /><path class="cls-2" d="M750,119.53,745.24,132v7.49h-4.79V132l-4.59-12.46h4.59l2.61,8.69,2.58-8.69Z" /><path class="cls-1" d="M178.35,76.7V90.51h.28v4.92h-5V82.74c-3.41,1.2-6,5.91-7.21,12.69H161.6C162.59,83.94,169.08,77.32,178.35,76.7Zm-11.45-8h4.8v4.91h-4.8Zm6.74,0h4.71v4.91h-4.71Z" /><path class="cls-1" d="M178.34,90.51H184v-8h4.79v8h2.66V76.7h12.67a7.11,7.11,0,0,1,7.45,7.49v6.32h.23v4.92h-33.5Zm28.55,0V84.64c0-2-.83-3-2.57-3H196.2v8.89Zm-9.82-21.78h4.71v4.91h-4.71Z" /><path class="cls-1" d="M211.59,90.51h5.82V76.7h4.71V95.43H211.59Zm5.82,8h4.71v5h-4.71Z" /><path class="cls-1" d="M225.68,95.43V68.73h4.71V90.51h.32v4.92Z" /><path class="cls-1" d="M250.31,76.7V95.43H230.39V90.51h8.2a4.83,4.83,0,0,0-.71-.82,8.13,8.13,0,0,1-1.63-5,7.69,7.69,0,0,1,3.84-7.07,9.6,9.6,0,0,1,4.6-.91Zm-12.75-8h4.75v4.91h-4.75Zm8,21.16V81.62h-1.19c-2.26,0-3.41,1-3.41,3C241,87,242.55,88.78,245.6,89.89Zm-1.35-21.16H249v4.91h-4.75Z" /><path class="cls-1" d="M292.75,95.43H268.43c-4.31,0-7.21-3.14-7.21-7.77v-9h4.72v9.18c0,1.82,1,2.68,2.93,2.68H288V76.7h4.71ZM271.24,76.7H276v4.92h-4.8Zm6.74,0h4.71v4.92H278Z" /><path class="cls-1" d="M301.09,95.43h-4.72V68.73h4.72Z" /><path class="cls-1" d="M303.93,98.7h.6c2.33,0,3.48-1.16,3.48-3.39V76.7h4.72V94.36c0,.66,0,1.24,0,1.7a9.37,9.37,0,0,1-1.39,4.54,6.37,6.37,0,0,1-4.51,2.81c-.56,0-1.31.13-2.22.13h-.64Z" /><path class="cls-1" d="M316.28,95.43V68.73H321V90.51h.31v4.92Z" /><path class="cls-1" d="M321,90.51h9.94V76.7h4.72V90.51h.23v4.92H321Zm3.25,8H329v5h-4.71Zm6.69,0h4.72v5h-4.72Z" /><path class="cls-1" d="M348,90.51V83.36h4.71v7.15h5.38V80.05h4.72V90.51H368V76.7h4.72V90.51H373v4.92H335.64V90.51Z" /><path class="cls-1" d="M372.73,90.51h5.82V68.73h4.71v26.7H372.73Z" /><path class="cls-1" d="M391.53,95.43h-4.71V68.73h4.71Z" /><path class="cls-1" d="M419.28,76.7V90.51h.28v4.92h-5V82.74c-3.4,1.2-6,5.91-7.21,12.69h-4.83C403.52,83.94,410,77.32,419.28,76.7Zm-11.44-8h4.79v4.91h-4.79Zm6.73,0h4.71v4.91h-4.71Z" /><path class="cls-1" d="M419.28,90.51h5.82V76.7h4.71V95.43H419.28Zm5.82-21.78h4.71v4.91H425.1Z" /><path class="cls-1" d="M433.37,95.43V68.73h4.71V90.51h.32v4.92Z" /><path class="cls-1" d="M438.08,90.51H448V76.7h4.71V90.51H453v4.92H438.08Zm3.24,8H446v5h-4.72Zm6.7,0h4.71v5H448Z" /><path class="cls-1" d="M452.72,90.51h5.7v-8h4.8v8h2.65V76.7h12.67A7.11,7.11,0,0,1,486,84.19v6.32h.24v4.92H452.72Zm28.55,0V84.64c0-2-.83-3-2.57-3h-8.12v8.89Z" /><path class="cls-1" d="M486,90.51h5.82V68.73h4.72v26.7H486Z" /><path class="cls-1" d="M527.35,76.7V96.22c0,4.71-2.58,7.32-7.21,7.32h-5.51c-4.63,0-7.21-2.61-7.21-7.32V83.36h4.72V96.84c.2,1.41.59,1.7,2.06,1.7h6.37a2.16,2.16,0,0,0,1.83-.67,2.48,2.48,0,0,0,.19-1V76.7Zm-12.2-8h4.71v4.91h-4.71Z" /><path class="cls-1" d="M535.61,95.43H530.9V68.73h4.71Z" /><path class="cls-1" d="M539.25,103.54v-5h6.49c.92,0,1.51-.21,1.75-.67a1.93,1.93,0,0,0,.27-1V95.43h-1.07a7.11,7.11,0,0,1-7.44-7.52V84.19a7.13,7.13,0,0,1,7.44-7.49h5.83V96.22c0,4.71-2.58,7.32-7.21,7.32Zm8.51-21.92h-1.22c-1.71,0-2.58,1-2.58,3v2.81c0,2,.87,3.06,2.58,3.06h1.22Z" /><path class="cls-1" d="M562.64,98.7h.6c2.33,0,3.48-1.16,3.48-3.39V76.7h4.72V90.51h.23v4.92h-.23c-.24,6.33-3.85,8.11-8.16,8.11h-.64Z" /><path class="cls-1" d="M583.75,90.51V83.36h4.71v7.15h5.38V80.05h4.72V90.51h5.26V76.7h4.72V95.43H571.43V90.51ZM590.44,69h4.71v5h-4.71Zm3.4-7h4.72v5h-4.72Zm3.33,7h4.71v5h-4.71Z" /><path class="cls-1" d="M612.12,95.43V68.73h4.71V90.51h.32v4.92Z" /><path class="cls-1" d="M616.83,90.51h5.82V76.7h4.71V90.51h.24v4.92H616.83Zm5.82,8h4.71v5h-4.71Z" /><path class="cls-1" d="M633.22,95.43h-5.86V90.51h5.86V84.19a7.11,7.11,0,0,1,7.45-7.49h5.82V91.55c0,4.71-2.93,7.77-7.45,7.77h-5.82Zm4.71-1.07h1.19c1.74,0,2.57-1,2.57-3V81.62h-1.18c-1.75,0-2.58,1-2.58,3Z" /><path class="cls-1" d="M674.15,76.7V90.51h.28v4.92h-5V82.74c-3.4,1.2-6,5.91-7.21,12.69H657.4C658.39,83.94,664.89,77.32,674.15,76.7Zm-11.44-8h4.79v4.91h-4.79Zm6.73,0h4.71v4.91h-4.71Z" /><path class="cls-1" d="M679.85,85.43V76.91l10.29-8.06H698L684.64,79.31v1.16h7.48A7.17,7.17,0,0,1,699.57,88v7.48H674.14V90.51h20.68V88.45c0-2-.88-3-2.62-3Z" /><path class="cls-1" d="M702.33,98.7h.59c2.34,0,3.49-1.16,3.49-3.39V76.7h4.71V90.51h.24v4.92h-.24c-.24,6.33-3.84,8.11-8.16,8.11h-.63Z" /><path class="cls-1" d="M723.43,90.51V83.36h4.71v7.15h5.39V80.05h4.71V90.51h5.27V76.7h4.71V95.43H711.11V90.51ZM730.12,69h4.72v5h-4.72Zm3.41-7h4.71v5h-4.71Zm3.33,7h4.71v5h-4.71Z" /></g></svg>