<svg xmlns="http://www.w3.org/2000/svg" viewBox="0 0 512 512" fill="white">
  <path d="M256 0C114.6 0 0 114.6 0 256c0 45.1 11.8 88.4 34.3 126.5L0 512l132.8-34.6C170.3 500.1 212.5 512 256 512c141.4 0 256-114.6 256-256S397.4 0 256 0zm0 472c-39.2 0-77.7-10.4-111.4-30.1l-7.9-4.6-78.8 20.5 21-77-5-8C57.3 339 48 298.4 48 256 48 141.1 141.1 48 256 48s208 93.1 208 208-93.1 216-208 216zm118.9-153.6c-6.5-3.2-38.5-19-44.5-21.2-6-2.2-10.4-3.2-14.8 3.2-4.4 6.5-17 21.2-20.8 25.6-3.8 4.4-7.6 4.9-14.1 1.6-6.5-3.2-27.4-10.1-52.2-32.2-19.3-17.2-32.3-38.3-36.1-44.8-3.8-6.5-.4-10 2.9-13.2 3-3 6.5-7.6 9.8-11.4 3.2-3.8 4.4-6.5 6.6-10.8 2.2-4.4 1.1-8.1-.5-11.3-1.6-3.2-14.8-35.7-20.3-48.8-5.3-12.7-10.7-11-14.8-11.2-3.8-.2-8.1-.2-12.4-.2s-11.3 1.6-17.2 8.1c-6 6.5-22.6 22.1-22.6 53.9s23.1 62.5 26.3 66.9c3.2 4.4 45.4 69.2 110.1 97 15.4 6.6 27.5 10.6 36.9 13.6 15.5 4.9 29.7 4.2 40.9 2.6 12.5-1.8 38.5-15.7 44-30.9 5.5-15.2 5.5-28.3 3.8-30.9-1.6-2.5-6-4.1-12.5-7.3z"/>
</svg>
